<!DOCTYPE svg PUBLIC "-//W3C//DTD SVG 1.1//EN" "http://www.w3.org/Graphics/SVG/1.1/DTD/svg11.dtd">
<!-- Uploaded to: SVG Repo, www.svgrepo.com, Transformed by: SVG Repo Mixer Tools -->
<svg width="64px" height="64px" viewBox="-2.1 -2.1 25.20 25.20" xmlns="http://www.w3.org/2000/svg" fill="#000000">
<g id="SVGRepo_bgCarrier" stroke-width="0">
<path transform="translate(-2.1, -2.1), scale(1.575)" fill="#000" d="M9.166.33a2.25 2.25 0 00-2.332 0l-5.25 3.182A2.25 2.25 0 00.5 5.436v5.128a2.25 2.25 0 001.084 1.924l5.25 3.182a2.25 2.25 0 002.332 0l5.25-3.182a2.25 2.25 0 001.084-1.924V5.436a2.25 2.25 0 00-1.084-1.924L9.166.33z" strokewidth="0"/>
</g>
<g id="SVGRepo_tracerCarrier" stroke-linecap="round" stroke-linejoin="round"/>
<g id="SVGRepo_iconCarrier"> <g fill="none" fill-rule="evenodd" stroke="#fff" stroke-linecap="round" stroke-linejoin="round" transform="translate(2 3)"> <line x1="10.5" x2="6.5" y1=".5" y2="14.5"/> <polyline points="7.328 2.672 7.328 8.328 1.672 8.328" transform="rotate(135 4.5 5.5)"/> <polyline points="15.328 6.672 15.328 12.328 9.672 12.328" transform="scale(1 -1) rotate(-45 -10.435 0)"/> </g> </g>
</svg>